<svg width="18" height="16" viewBox="0 0 18 16" fill="none" xmlns="http://www.w3.org/2000/svg">
<path d="M11.6397 6.32068C13.067 7.74795 13.067 10.062 11.6397 11.4893C10.2124 12.9165 7.89835 12.9165 6.47109 11.4893C5.04382 10.062 5.04382 7.74795 6.47109 6.32068C7.89835 4.89341 10.2124 4.89341 11.6397 6.32068" stroke="white" stroke-linecap="round" stroke-linejoin="round"/>
<path d="M17.2502 5.25036V13.5004C17.2502 14.5133 16.4298 15.3337 15.4169 15.3337H2.58352C1.5706 15.3337 0.750183 14.5133 0.750183 13.5004V5.25036C0.750183 4.23744 1.5706 3.41702 2.58352 3.41702H4.41685L5.75702 1.12169C5.9211 0.840273 6.22268 0.667023 6.54902 0.667023H11.411C11.7328 0.667023 12.0307 0.83569 12.1966 1.11069L13.5835 3.41702H15.4169C16.4298 3.41702 17.2502 4.23744 17.2502 5.25036Z" stroke="white" stroke-linecap="round" stroke-linejoin="round"/>
</svg>
